<svg width="60" height="67" viewBox="0 0 60 67" fill="none" xmlns="http://www.w3.org/2000/svg">
<g clip-path="url(#clip0_440_160)">
<path d="M60 33.5C60 42.3848 56.8393 50.9056 51.2132 57.1881C45.5871 63.4705 37.9565 67 30 67C22.0435 67 14.4129 63.4705 8.7868 57.1881C3.16071 50.9056 0 42.3848 0 33.5C0 24.6152 3.16071 16.0944 8.7868 9.81192C14.4129 3.52945 22.0435 0 30 0C37.9565 0 45.5871 3.52945 51.2132 9.81192C56.8393 16.0944 60 24.6152 60 33.5ZM25.4625 21.3269C25.1821 21.104 24.8522 20.9716 24.509 20.9441C24.1657 20.9167 23.8222 20.9953 23.5163 21.1713C23.2103 21.3473 22.9537 21.6139 22.7744 21.942C22.5951 22.2701 22.5002 22.6469 22.5 23.0312V43.9688C22.5002 44.3531 22.5951 44.7299 22.7744 45.058C22.9537 45.3861 23.2103 45.6527 23.5163 45.8287C23.8222 46.0047 24.1657 46.0833 24.509 46.0559C24.8522 46.0284 25.1821 45.896 25.4625 45.6731L38.5875 35.2043C38.8306 35.0106 39.0287 34.7549 39.1654 34.4585C39.3021 34.162 39.3734 33.8334 39.3734 33.5C39.3734 33.1666 39.3021 32.838 39.1654 32.5415C39.0287 32.2451 38.8306 31.9894 38.5875 31.7957L25.4625 21.3269Z" fill="white"/>
</g>
<defs>
<clipPath id="clip0_440_160">
<rect width="60" height="67" fill="white"/>
</clipPath>
</defs>
</svg>
