<svg width="65" height="71" viewBox="0 0 65 71" fill="none" xmlns="http://www.w3.org/2000/svg">
<path d="M15.9377 17.554C15.9461 16.9739 16.1648 16.4206 16.5457 16.0158C16.9267 15.611 17.4387 15.3879 17.969 15.3955C18.4994 15.4032 19.0047 15.641 19.3739 16.0566C19.743 16.4722 19.9457 17.0315 19.9373 17.6116L19.7324 31.8202L45.0272 16.2757C47.2067 14.9376 49.9505 16.6354 49.9107 19.3914L49.4451 51.693C49.4053 54.449 46.6136 56.0714 44.4736 54.6711L19.6375 38.4038L19.4328 52.608C19.4244 53.1881 19.2057 53.7414 18.8247 54.1462C18.4438 54.551 17.9318 54.7741 17.4014 54.7664C16.871 54.7588 16.3657 54.521 15.9966 54.1054C15.6275 53.6898 15.4248 53.1304 15.4332 52.5503L15.9377 17.554Z" fill="white"/>
</svg>
