<svg width="20" height="20" viewBox="0 0 20 20" fill="none" xmlns="http://www.w3.org/2000/svg">
<path d="M8.7177 9.80313C9.06509 10.1313 9.52468 10.3145 10.0026 10.3152C10.4805 10.3159 10.9406 10.134 11.2889 9.80688L17.5858 3.89188C17.3606 3.79834 17.1191 3.75013 16.8752 3.75H3.1252C2.89404 3.75132 2.66515 3.79561 2.4502 3.88063L8.7177 9.80313Z" fill="#22272E"/>
<path d="M12.1444 10.7181C11.5633 11.2625 10.7966 11.5649 10.0003 11.5637C9.20409 11.5625 8.43824 11.2579 7.85875 10.7118L1.5 4.70435C1.33794 4.98422 1.25177 5.30156 1.25 5.62497V14.375C1.25 14.8723 1.44754 15.3492 1.79917 15.7008C2.15081 16.0524 2.62772 16.25 3.125 16.25H16.875C17.3723 16.25 17.8492 16.0524 18.2008 15.7008C18.5525 15.3492 18.75 14.8723 18.75 14.375V5.62497C18.7479 5.31297 18.6668 5.00657 18.5144 4.73435L12.1444 10.7181Z" fill="#22272E"/>
</svg>
