<svg width="55" height="56" viewBox="0 0 55 56" fill="none" xmlns="http://www.w3.org/2000/svg">
<path d="M39.6481 24.5001H53.1644C53.3277 24.5001 53.4876 24.5476 53.6253 24.6368C53.7631 24.7261 53.8731 24.8534 53.9423 25.004C54.0116 25.1546 54.0372 25.3221 54.0164 25.487C53.9955 25.6519 53.9289 25.8073 53.8244 25.9351L47.0662 34.1951C46.9856 34.2936 46.8847 34.3728 46.7706 34.4271C46.6566 34.4815 46.5322 34.5097 46.4062 34.5097C46.2803 34.5097 46.1559 34.4815 46.0419 34.4271C45.9278 34.3728 45.8269 34.2936 45.7462 34.1951L38.9881 25.9351C38.8836 25.8073 38.817 25.6519 38.7961 25.487C38.7752 25.3221 38.8009 25.1546 38.8702 25.004C38.9394 24.8534 39.0494 24.7261 39.1871 24.6368C39.3249 24.5476 39.4848 24.5001 39.6481 24.5001ZM1.83562 31.5001H15.3519C15.5152 31.5 15.6751 31.4526 15.8128 31.3633C15.9506 31.2741 16.0606 31.1467 16.1298 30.9962C16.1991 30.8456 16.2247 30.6781 16.2039 30.5132C16.183 30.3483 16.1164 30.1928 16.0119 30.0651L9.25374 21.8051C9.17309 21.7066 9.07217 21.6274 8.95811 21.573C8.84406 21.5187 8.71967 21.4905 8.59374 21.4905C8.46781 21.4905 8.34342 21.5187 8.22937 21.573C8.11532 21.6274 8.01439 21.7066 7.93374 21.8051L1.17562 30.0651C1.07111 30.1928 1.00451 30.3483 0.983623 30.5132C0.962735 30.6781 0.988421 30.8456 1.05767 30.9962C1.12692 31.1467 1.23688 31.2741 1.37465 31.3633C1.51243 31.4526 1.67232 31.5 1.83562 31.5001Z" fill="white"/>
<path fill-rule="evenodd" clip-rule="evenodd" d="M27.5001 10.5001C22.1651 10.5001 17.3938 12.9746 14.2417 16.8631C14.1009 17.0488 13.9249 17.2039 13.7241 17.319C13.5233 17.4341 13.3019 17.5069 13.0729 17.5331C12.8439 17.5594 12.6121 17.5384 12.3912 17.4716C12.1703 17.4047 11.9649 17.2934 11.7871 17.1441C11.6094 16.9948 11.4629 16.8106 11.3565 16.6025C11.25 16.3944 11.1858 16.1667 11.1675 15.9328C11.1492 15.6989 11.1773 15.4637 11.2502 15.2411C11.323 15.0185 11.439 14.8131 11.5913 14.6371C14.1082 11.5344 17.4474 9.23312 21.2117 8.00688C24.9761 6.78063 29.0071 6.68106 32.8254 7.71999C36.6437 8.75893 40.0885 10.8927 42.7503 13.8674C45.412 16.8421 47.1785 20.5327 47.8398 24.5001H44.3438C43.5514 20.5473 41.442 16.9947 38.3726 14.4435C35.3032 11.8923 31.4623 10.4993 27.5001 10.5001ZM10.6563 31.5001C11.3071 34.7363 12.8438 37.719 15.0889 40.1036C17.334 42.4882 20.196 44.1774 23.344 44.9761C26.4921 45.7747 29.7979 45.6503 32.8794 44.6171C35.9609 43.5838 38.6925 41.684 40.7585 39.1371C40.8993 38.9513 41.0753 38.7963 41.2761 38.6812C41.4769 38.5661 41.6983 38.4932 41.9273 38.467C42.1563 38.4408 42.3881 38.4617 42.609 38.5286C42.8299 38.5954 43.0353 38.7068 43.2131 38.8561C43.3908 39.0054 43.5373 39.1896 43.6437 39.3976C43.7502 39.6057 43.8144 39.8335 43.8327 40.0673C43.8509 40.3012 43.8228 40.5365 43.75 40.759C43.6772 40.9816 43.5612 41.1871 43.4088 41.3631C40.8919 44.4657 37.5527 46.767 33.7884 47.9933C30.0241 49.2195 25.9931 49.3191 22.1748 48.2802C18.3565 47.2412 14.9116 45.1075 12.2499 42.1328C9.58821 39.158 7.82167 35.4675 7.1604 31.5001H10.6563Z" fill="white"/>
</svg>
