<svg width="59" height="49" viewBox="0 0 59 49" fill="none" xmlns="http://www.w3.org/2000/svg">
<path fill-rule="evenodd" clip-rule="evenodd" d="M0 10.7188C0 10.3126 0.194252 9.92316 0.540022 9.63599C0.885792 9.34883 1.35476 9.1875 1.84375 9.1875H3.6875C11.8074 9.1875 17.7996 12.985 21.6604 16.5926C23.4673 18.2831 24.8501 19.9675 25.8125 21.2844C26.7712 19.9675 28.1578 18.2831 29.9646 16.5926C33.8254 12.985 39.8176 9.1875 47.9375 9.1875V12.25C41.3074 12.25 36.2371 15.3431 32.7229 18.6261C30.822 20.4132 29.19 22.3856 27.8628 24.5C29.1888 26.6142 30.8196 28.5867 32.7192 30.3739C36.2407 33.6569 41.3148 36.75 47.9375 36.75V39.8125C39.8176 39.8125 33.8254 36.015 29.9646 32.4074C28.4142 30.9499 27.0245 29.3797 25.8125 27.7156C24.8538 29.0325 23.4673 30.7169 21.6604 32.4074C17.7996 36.015 11.8074 39.8125 3.6875 39.8125H1.84375C1.35476 39.8125 0.885792 39.6512 0.540022 39.364C0.194252 39.0768 0 38.6874 0 38.2812C0 37.8751 0.194252 37.4857 0.540022 37.1985C0.885792 36.9113 1.35476 36.75 1.84375 36.75H3.6875C10.3176 36.75 15.3879 33.6569 18.9021 30.3739C20.803 28.5868 22.435 26.6144 23.7622 24.5C22.4362 22.3858 20.8054 20.4133 18.9058 18.6261C15.3842 15.3431 10.3103 12.25 3.6875 12.25H1.84375C1.35476 12.25 0.885792 12.0887 0.540022 11.8015C0.194252 11.5143 0 11.1249 0 10.7188Z" fill="white"/>
<path d="M47.9375 16.7397V4.69796C47.9376 4.55248 47.9875 4.41002 48.0816 4.28728C48.1756 4.16453 48.3098 4.06658 48.4684 4.00488C48.627 3.94318 48.8036 3.9203 48.9773 3.93891C49.151 3.95752 49.3148 4.01685 49.4494 4.10996L58.1519 10.1308C58.5944 10.4371 58.5944 11.0006 58.1519 11.3068L49.4494 17.3277C49.3148 17.4208 49.151 17.4801 48.9773 17.4988C48.8036 17.5174 48.627 17.4945 48.4684 17.4328C48.3098 17.3711 48.1756 17.2731 48.0816 17.1504C47.9875 17.0276 47.9376 16.8852 47.9375 16.7397ZM47.9375 44.3022V32.2605C47.9376 32.115 47.9875 31.9725 48.0816 31.8498C48.1756 31.727 48.3098 31.6291 48.4684 31.5674C48.627 31.5057 48.8036 31.4828 48.9773 31.5014C49.151 31.52 49.3148 31.5793 49.4494 31.6725L58.1519 37.6933C58.5944 37.9996 58.5944 38.5631 58.1519 38.8693L49.4494 44.8902C49.3148 44.9833 49.151 45.0426 48.9773 45.0613C48.8036 45.0799 48.627 45.057 48.4684 44.9953C48.3098 44.9336 48.1756 44.8356 48.0816 44.7129C47.9875 44.5901 47.9376 44.4477 47.9375 44.3022Z" fill="white"/>
</svg>
