<svg width="58" height="52" viewBox="0 0 58 52" fill="none" xmlns="http://www.w3.org/2000/svg">
<path d="M45.6257 14.6327V9.7499C45.6257 9.23273 45.8549 8.73674 46.2627 8.37104C46.6706 8.00535 47.2239 7.7999 47.8007 7.7999C48.3775 7.7999 48.9308 8.00535 49.3387 8.37104C49.7465 8.73674 49.9757 9.23273 49.9757 9.7499V18.8499C49.9757 19.3671 49.7465 19.8631 49.3387 20.2288C48.9308 20.5945 48.3775 20.7999 47.8007 20.7999H36.2007C35.6239 20.7999 35.0706 20.5945 34.6627 20.2288C34.2549 19.8631 34.0257 19.3671 34.0257 18.8499C34.0257 18.3327 34.2549 17.8367 34.6627 17.471C35.0706 17.1053 35.6239 16.8999 36.2007 16.8999H42.0732C38.6077 13.2859 33.6545 11.0499 28.2257 11.0499C21.2686 11.0499 15.0887 14.7289 11.8262 20.2617C11.6288 20.6137 11.3277 20.9105 10.9555 21.1199C10.5834 21.3294 10.1544 21.4435 9.715 21.4499C8.1548 21.4499 7.0731 20.0641 7.772 18.8161C11.6667 11.9053 19.3082 7.1499 28.2286 7.1499C35.206 7.1499 41.4004 10.0593 45.6286 14.6327M36.2529 44.1999C41.6904 44.1999 43.5029 40.1257 43.5029 35.0999C43.5029 30.0741 41.6904 25.9999 36.2529 25.9999C30.8154 25.9999 29.0029 30.0741 29.0029 35.0999C29.0029 40.1257 30.8154 44.1999 36.2529 44.1999ZM38.2162 39.4887C38.0665 39.7273 37.8495 39.9263 37.5869 40.0659C37.3839 40.1647 36.9953 40.2999 36.2529 40.2999C35.5134 40.2999 35.1219 40.1647 34.9218 40.0659C34.6588 39.9256 34.4417 39.7256 34.2925 39.4861C33.7763 38.7373 33.3529 37.3099 33.3529 35.0999C33.3529 32.8899 33.7763 31.4625 34.2925 30.7137C34.4417 30.4742 34.6588 30.2742 34.9218 30.1339C35.1248 30.0351 35.5134 29.8999 36.2558 29.8999C36.9953 29.8999 37.3868 30.0351 37.5869 30.1339C37.8499 30.2742 38.067 30.4742 38.2162 30.7137C38.7324 31.4625 39.1529 32.8899 39.1529 35.0999C39.1529 37.3099 38.7324 38.7373 38.2162 39.4887ZM23.925 27.9499C23.9253 27.5769 23.8062 27.2116 23.5819 26.8975C23.3576 26.5833 23.0375 26.3334 22.6596 26.1774C22.2817 26.0214 21.8618 25.9658 21.4498 26.0173C21.0377 26.0688 20.6507 26.2252 20.3348 26.4679L15.2598 30.3679C14.8214 30.7048 14.5502 31.1839 14.5059 31.7001C14.4616 32.2162 14.6477 32.7269 15.0235 33.12C15.3992 33.5131 15.9337 33.7562 16.5093 33.7959C17.085 33.8357 17.6547 33.6688 18.0931 33.3319L19.575 32.1879V42.2499C19.575 42.7671 19.8042 43.2631 20.212 43.6288C20.6199 43.9945 21.1732 44.1999 21.75 44.1999C22.3268 44.1999 22.8801 43.9945 23.288 43.6288C23.6958 43.2631 23.925 42.7671 23.925 42.2499V27.9499Z" fill="white"/>
</svg>
