<svg width="65" height="71" viewBox="0 0 65 71" fill="none" xmlns="http://www.w3.org/2000/svg">
<path d="M48.0497 52.6367C48.048 53.2169 47.8357 53.7727 47.4595 54.1818C47.0833 54.591 46.5739 54.82 46.0435 54.8185C45.513 54.817 45.005 54.5851 44.6311 54.1738C44.2572 53.7625 44.0481 53.2055 44.0497 52.6253L44.0902 38.4154L18.977 54.2514C16.8131 55.6146 14.0498 53.9486 14.0577 51.1924L14.1497 18.8875C14.1575 16.1313 16.9303 14.4767 19.0863 15.8522L44.1089 31.831L44.1494 17.6255C44.151 17.0453 44.3633 16.4895 44.7396 16.0804C45.1158 15.6712 45.6252 15.4422 46.1556 15.4437C46.686 15.4452 47.1941 15.6771 47.568 16.0884C47.9419 16.4997 48.151 17.0567 48.1494 17.6369L48.0497 52.6367Z" fill="white"/>
</svg>
