<svg width="56" height="54" viewBox="0 0 56 54" fill="none" xmlns="http://www.w3.org/2000/svg">
<path d="M11.2 15.1956V10.125C11.2 9.58799 10.9788 9.07292 10.5849 8.69316C10.1911 8.3134 9.65695 8.10005 9.1 8.10005C8.54305 8.10005 8.0089 8.3134 7.61508 8.69316C7.22125 9.07292 7 9.58799 7 10.125V19.575C7 20.6928 7.9408 21.6 9.1 21.6H20.3C20.857 21.6 21.3911 21.3867 21.7849 21.0069C22.1788 20.6272 22.4 20.1121 22.4 19.575C22.4 19.038 22.1788 18.5229 21.7849 18.1432C21.3911 17.7634 20.857 17.55 20.3 17.55H14.6328C17.976 13.797 22.7612 11.475 28 11.475C34.72 11.475 40.684 15.2955 43.834 21.0411C44.2372 21.7782 45.01 22.275 45.8752 22.275C47.3788 22.275 48.4232 20.8359 47.7456 19.5399C43.9936 12.3633 36.6156 7.42505 28 7.42505C21.2632 7.42505 15.2824 10.4463 11.2 15.1956ZM23.1 29.025C23.1003 28.6377 22.9853 28.2584 22.7687 27.9321C22.5522 27.6059 22.2431 27.3464 21.8783 27.1844C21.5134 27.0224 21.108 26.9647 20.7101 27.0181C20.3122 27.0716 19.9386 27.234 19.6336 27.486L14.7336 31.536C14.524 31.7091 14.3518 31.9202 14.2268 32.1574C14.1019 32.3946 14.0266 32.6532 14.0053 32.9185C13.9839 33.1838 14.017 33.4505 14.1026 33.7034C14.1882 33.9563 14.3246 34.1905 14.504 34.3926C14.8664 34.8008 15.3821 35.0534 15.9376 35.095C16.2127 35.1155 16.4893 35.0836 16.7516 35.0011C17.0139 34.9186 17.2568 34.7871 17.4664 34.614L18.9 33.426V43.875C18.9 44.4121 19.1212 44.9272 19.5151 45.3069C19.9089 45.6867 20.443 45.9 21 45.9C21.557 45.9 22.0911 45.6867 22.4849 45.3069C22.8787 44.9272 23.1 44.4121 23.1 43.875V29.025ZM42 36.45C42 41.6691 40.25 45.9 35 45.9C29.75 45.9 28 41.6691 28 36.45C28 31.2309 29.75 27 35 27C40.25 27 42 31.2309 42 36.45ZM37.8 36.45C37.8 34.155 37.394 32.6727 36.8928 31.8951C36.7487 31.6464 36.5391 31.4387 36.2852 31.293C36.092 31.1904 35.714 31.05 35 31.05C34.286 31.05 33.908 31.1904 33.712 31.293C33.4591 31.4391 33.2505 31.6468 33.1072 31.8951C32.606 32.6727 32.2 34.155 32.2 36.45C32.2 38.745 32.606 40.2273 33.1072 41.0076C33.2517 41.2554 33.4612 41.4621 33.7148 41.607C33.908 41.7096 34.286 41.85 35 41.85C35.714 41.85 36.092 41.7096 36.288 41.607C36.5409 41.461 36.7495 41.2533 36.8928 41.0049C37.394 40.2273 37.8 38.745 37.8 36.45Z" fill="white"/>
</svg>
