<svg width="20" height="20" viewBox="0 0 20 20" fill="none" xmlns="http://www.w3.org/2000/svg">
<g clip-path="url(#clip0_340_72)">
<path d="M0.80162 19.4327H19.1984C19.4441 19.4327 19.6732 19.3324 19.8269 19.1576C19.9605 19.0061 20.0197 18.8138 19.9943 18.6162C19.5629 15.2553 17.4963 12.4546 14.6671 10.9614C13.4713 12.1572 11.8205 12.8979 10 12.8979C8.17962 12.8979 6.52872 12.1572 5.33299 10.9614C2.50374 12.4542 0.43673 15.2553 0.00572395 18.6162C-0.0196436 18.8138 0.0398694 19.0065 0.173069 19.1576C0.326804 19.3324 0.555918 19.4327 0.80162 19.4327Z" fill="#22272E"/>
<path d="M5.85459 10.2348C5.96209 10.3471 6.07401 10.455 6.19009 10.5584C7.20366 11.4651 8.53655 12.0214 9.99997 12.0214C11.4634 12.0214 12.7963 11.4646 13.8099 10.5584C13.9259 10.455 14.0378 10.3471 14.1453 10.2348C14.2522 10.1222 14.3565 10.007 14.4546 9.88614C15.2487 8.90277 15.727 7.65404 15.727 6.29442C15.727 3.13629 13.1575 0.567322 9.99989 0.567322C6.84224 0.567322 4.27295 3.13669 4.27295 6.29434C4.27295 7.65396 4.75123 8.90277 5.54535 9.88606C5.64304 10.007 5.74725 10.1218 5.85459 10.2348Z" fill="#22272E"/>
</g>
<defs>
<clipPath id="clip0_340_72">
<rect width="20" height="20" fill="white"/>
</clipPath>
</defs>
</svg>
